HIERARCHY
ROOT Hips
{
	OFFSET 0.00000 0.00000 0.00000
	CHANNELS 6 Xposition Yposition Zposition Zrotation Yrotation Xrotation 
	JOINT LHipJoint
	{
		OFFSET 0 0 0
		CHANNELS 3 Zrotation Yrotation Xrotation
		JOINT LeftUpLeg
		{
			OFFSET 1.62964 -1.40469 0.78906
			CHANNELS 3 Zrotation Yrotation Xrotation
			JOINT LeftLeg
			{
				OFFSET 2.29640 -6.30932 0.00000
				CHANNELS 3 Zrotation Yrotation Xrotation
				JOINT LeftFoot
				{
					OFFSET 2.29451 -6.30412 0.00000
					CHANNELS 3 Zrotation Yrotation Xrotation
					JOINT LeftToeBase
					{
						OFFSET 0.03611 -0.09921 1.56387
						CHANNELS 3 Zrotation Yrotation Xrotation
						End Site
						{
							OFFSET 0.00000 -0.00000 0.80291
						}
					}
				}
			}
		}
	}
	JOINT RHipJoint
	{
		OFFSET 0 0 0
		CHANNELS 3 Zrotation Yrotation Xrotation
		JOINT RightUpLeg
		{
			OFFSET -1.73712 -1.40469 0.78906
			CHANNELS 3 Zrotation Yrotation Xrotation
			JOINT RightLeg
			{
				OFFSET -2.28137 -6.26801 0.00000
				CHANNELS 3 Zrotation Yrotation Xrotation
				JOINT RightFoot
				{
					OFFSET -2.28681 -6.28298 0.00000
					CHANNELS 3 Zrotation Yrotation Xrotation
					JOINT RightToeBase
					{
						OFFSET -0.15927 -0.43759 1.61103
						CHANNELS 3 Zrotation Yrotation Xrotation
						End Site
						{
							OFFSET -0.00000 -0.00000 0.84630
						}
					}
				}
			}
		}
	}
	JOINT LowerBack
	{
		OFFSET 0 0 0
		CHANNELS 3 Zrotation Yrotation Xrotation
		JOINT Spine
		{
			OFFSET -0.04227 2.04338 -0.00225
			CHANNELS 3 Zrotation Yrotation Xrotation
			JOINT Spine1
			{
				OFFSET -0.02148 2.04482 -0.04273
				CHANNELS 3 Zrotation Yrotation Xrotation
				JOINT Neck
				{
					OFFSET 0 0 0
					CHANNELS 3 Zrotation Yrotation Xrotation
					JOINT Neck1
					{
						OFFSET 0.09180 1.44629 0.19359
						CHANNELS 3 Zrotation Yrotation Xrotation
						JOINT Head
						{
							OFFSET 0.00887 1.40645 0.14750
							CHANNELS 3 Zrotation Yrotation Xrotation
							End Site
							{
								OFFSET -0.00669 1.50671 0.03707
							}
						}
					}
				}
				JOINT LeftShoulder
				{
					OFFSET 0 0 0
					CHANNELS 3 Zrotation Yrotation Xrotation
					JOINT LeftArm
					{
						OFFSET 2.17674 1.86763 -0.06520
						CHANNELS 3 Zrotation Yrotation Xrotation
						JOINT LeftForeArm
						{
							OFFSET 4.65776 -0.00000 0.00000
							CHANNELS 3 Zrotation Yrotation Xrotation
							JOINT LeftHand
							{
								OFFSET 3.55539 -0.00000 0.00000
								CHANNELS 3 Zrotation Yrotation Xrotation
								JOINT LeftFingerBase
								{
									OFFSET 0 0 0
									CHANNELS 3 Zrotation Yrotation Xrotation
									JOINT LeftHandIndex1
									{
										OFFSET 0.70726 -0.00000 0.00000
										CHANNELS 3 Zrotation Yrotation Xrotation
										End Site
										{
											OFFSET 0.57022 -0.00000 0.00000
										}
									}
								}
								JOINT LThumb
								{
									OFFSET 0 0 0
									CHANNELS 3 Zrotation Yrotation Xrotation
									End Site
									{
										OFFSET 0.57892 -0.00000 0.57892
									}
								}
							}
						}
					}
				}
				JOINT RightShoulder
				{
					OFFSET 0 0 0
					CHANNELS 3 Zrotation Yrotation Xrotation
					JOINT RightArm
					{
						OFFSET -2.80694 1.55459 -0.32496
						CHANNELS 3 Zrotation Yrotation Xrotation
						JOINT RightForeArm
						{
							OFFSET -4.71925 -0.00000 -0.00000
							CHANNELS 3 Zrotation Yrotation Xrotation
							JOINT RightHand
							{
								OFFSET -3.56990 -0.00000 0.00000
								CHANNELS 3 Zrotation Yrotation Xrotation
								JOINT RightFingerBase
								{
									OFFSET 0 0 0
									CHANNELS 3 Zrotation Yrotation Xrotation
									JOINT RightHandIndex1
									{
										OFFSET -0.50776 -0.00000 0.00000
										CHANNELS 3 Zrotation Yrotation Xrotation
										End Site
										{
											OFFSET -0.40937 -0.00000 0.00000
										}
									}
								}
								JOINT RThumb
								{
									OFFSET 0 0 0
									CHANNELS 3 Zrotation Yrotation Xrotation
									End Site
									{
										OFFSET -0.41562 -0.00000 0.41562
									}
								}
							}
						}
					}
				}
			}
		}
	}
}
MOTION
Frames: 11
Frame Time: .0083333
9.3113 14.6069 19.7927 178.2870 -11.9712 -149.6270 0.0000 0.0000 0.0000 -8.1988 -30.7950 -53.3698 11.1005 17.9839 63.1074 -0.1947 -20.9802 -13.1870 1.7876 8.4088 23.9628 0.0000 0.0000 0.0000 16.8180 13.6322 -52.8559 -10.7731 -17.8223 62.0425 -4.3596 0.2322 -39.6534 -3.7642 11.8398 -35.1676 -5.6612 -0.4726 -15.5093 -0.7933 0.1910 -1.3472 2.3890 -0.1639 7.2457 -2.8406 4.9775 -5.7682 14.7818 5.4937 4.7219 5.0812 2.8874 1.8384 0.0000 0.0000 0.0000 -83.2563 -2.2632 32.3003 14.3804 -23.2759 -2.9768 -0.0000 -0.0000 2.1179 24.4170 -10.8909 -4.9025 -7.1250 0.0000 -0.0000 -1.8785 18.0523 1.2046 0.0000 0.0000 0.0000 88.9990 -0.5142 16.9603 -14.1702 22.9775 -2.8942 0.0000 -0.0000 -0.1735 -18.1088 -47.9235 13.6436 7.1250 -0.0000 -0.0000 44.3453 -75.7977 -33.4322
9.3152 14.6067 19.7578 178.1560 -13.1179 -149.8540 0.0000 0.0000 0.0000 -8.3984 -31.2724 -52.6259 10.9661 17.9185 62.6716 -0.2484 -21.1125 -12.8376 2.0440 8.9571 25.6612 0.0000 0.0000 0.0000 17.1648 13.0859 -52.2287 -10.6629 -17.7661 61.6819 -4.3883 -0.3863 -39.9606 -3.8568 11.9674 -35.6168 -5.6636 -0.4886 -15.7734 -0.7714 0.1965 -1.2595 2.4155 -0.1673 7.4870 -3.2398 4.9218 -5.7760 14.9259 5.4617 4.7435 5.1917 2.8775 1.8323 0.0000 -0.0000 0.0000 -82.9541 -2.1695 33.4155 14.6324 -23.6315 -3.0771 -0.0000 -0.0000 1.8636 24.6855 -11.1718 -5.0891 -7.1250 0.0000 -0.0000 -1.7044 17.7202 1.1053 0.0000 -0.0000 0.0000 88.7414 -1.1893 17.9299 -14.4368 23.3557 -2.9991 0.0000 -0.0000 -1.0455 -17.9661 -49.3593 13.8233 7.1250 -0.0000 -0.0000 49.4202 -76.5640 -38.3046
9.3153 14.6154 19.7295 178.2080 -13.9093 -149.6900 0.0000 0.0000 0.0000 -8.3085 -31.4258 -52.4695 10.7999 17.8358 62.1300 -0.2784 -21.0937 -12.5649 2.2596 9.3871 27.0139 0.0000 0.0000 0.0000 17.3735 13.0772 -52.0472 -10.5971 -17.7322 61.4660 -4.4646 -0.4129 -40.3189 -3.7274 11.7886 -34.9881 -5.5218 -0.3089 -16.4405 -0.8177 0.4385 -1.3607 2.3412 -0.0565 7.7284 -3.6265 4.8274 -5.7213 15.1181 5.3758 4.7201 5.3115 2.8367 1.8070 -0.0000 0.0000 0.0000 -82.5770 -1.8892 34.5273 15.0270 -24.1837 -3.2370 -0.0000 -0.0000 1.6678 24.7494 -11.2696 -5.1479 -7.1250 0.0000 -0.0000 -1.6650 17.6071 1.0838 -0.0000 0.0000 0.0000 88.5514 -2.1111 18.7273 -14.8711 23.9663 -3.1734 0.0000 -0.0000 -1.6451 -17.3078 -50.7359 13.5642 7.1250 -0.0000 -0.0000 55.1478 -76.9754 -43.5972
9.3215 14.6495 19.6933 178.0840 -14.9496 -149.7870 0.0000 0.0000 0.0000 -8.5435 -31.6655 -51.6798 10.5612 17.7136 61.3481 -0.2907 -21.0246 -12.4000 2.2228 9.3154 26.7871 0.0000 0.0000 0.0000 17.6798 12.6273 -51.2847 -10.3583 -17.6065 60.6793 -4.5188 -0.2727 -40.5263 -3.3606 11.2571 -33.1518 -5.5879 -0.2385 -16.7312 -0.8284 0.5572 -1.4029 2.3955 -0.0059 7.8333 -4.0811 4.7158 -5.6776 15.3493 5.2735 4.6682 5.4546 2.7873 1.7742 0.0000 -0.0000 0.0000 -82.1810 -1.6041 35.7834 15.4803 -24.8110 -3.4250 -0.0000 -0.0000 1.3991 24.8310 -11.2641 -5.1646 -7.1250 0.0000 -0.0000 -1.6074 17.6050 1.0463 0.0000 -0.0000 0.0000 88.2543 -3.1850 19.6572 -15.3978 24.6973 -3.3904 0.0000 -0.0000 -2.3303 -16.9011 -52.2024 13.5007 7.1250 -0.0000 -0.0000 61.4297 -77.3921 -49.5749
9.3286 14.7065 19.6478 177.8930 -16.1464 -149.9780 0.0000 0.0000 0.0000 -8.9252 -31.9364 -50.4748 10.2009 17.5213 60.1577 -0.3094 -20.7815 -12.0284 2.1369 9.1456 26.2519 0.0000 0.0000 0.0000 18.1226 11.9568 -50.0964 -9.9588 -17.3866 59.3506 -4.5175 -0.4770 -40.5788 -3.0518 10.7784 -31.5362 -5.7660 -0.2714 -16.9251 -0.7630 0.5586 -1.3793 2.5687 -0.0156 7.9639 -4.6711 4.6239 -5.7483 15.5909 5.2083 4.6674 5.6294 2.7629 1.7681 0.0000 -0.0000 0.0000 -81.8608 -1.4089 37.0155 15.9300 -25.4257 -3.6159 -0.0000 -0.0000 1.1603 25.0348 -11.3532 -5.2531 -7.1250 0.0000 -0.0000 -1.4697 17.4872 0.9604 0.0000 -0.0000 0.0000 87.8043 -4.2481 20.6527 -15.9138 25.4037 -3.6089 0.0000 -0.0000 -2.9739 -16.7564 -52.0858 13.3623 7.1250 -0.0000 -0.0000 61.0006 -77.2937 -49.0889
9.3284 14.7818 19.6001 177.8450 -17.3039 -150.0020 0.0000 0.0000 0.0000 -9.0951 -32.2178 -49.3928 9.7484 17.2659 58.6442 -0.3263 -20.2891 -11.4482 2.1807 9.2327 26.5260 0.0000 0.0000 0.0000 18.6395 11.4974 -49.0334 -9.4930 -17.1147 57.7801 -4.3893 -1.5334 -40.3104 -3.1009 10.8566 -31.7979 -5.7439 -0.1811 -17.2561 -0.7787 0.6843 -1.4765 2.5708 0.0414 8.0305 -5.1847 4.5134 -5.7705 15.8359 5.1064 4.6819 5.7914 2.7190 1.7651 0.0000 -0.0000 0.0000 -81.4183 -1.1804 38.2575 16.3547 -25.9992 -3.8001 -0.0000 -0.0000 1.0902 25.1398 -11.6546 -5.4154 -7.1250 0.0000 -0.0000 -1.4138 17.1467 0.9344 0.0000 -0.0000 0.0000 87.6059 -5.4971 21.3201 -16.4886 26.1787 -3.8590 0.0000 -0.0000 -3.2843 -17.2782 -51.5813 13.6962 7.1250 -0.0000 -0.0000 58.6110 -77.3162 -46.9776
9.3235 14.8832 19.5568 177.7410 -18.5719 -149.9330 0.0000 0.0000 0.0000 -9.2250 -32.7226 -48.3158 9.2546 16.9688 56.9665 -0.3566 -19.6400 -10.5796 2.2995 9.4639 27.2575 0.0000 0.0000 0.0000 19.0790 10.8997 -48.0649 -8.9189 -16.7552 55.8091 -4.0621 -3.3419 -39.4025 -3.4914 11.4510 -33.8164 -5.6259 -0.1167 -17.5641 -0.8567 0.7360 -1.7527 2.4328 0.0686 7.8965 -5.7153 4.4390 -5.4715 16.1345 5.0550 4.6056 5.9629 2.6833 1.6743 0.0000 0.0000 0.0000 -80.8917 -0.6804 39.3976 16.7671 -26.5497 -3.9827 -0.0000 -0.0000 1.1841 25.3462 -12.0326 -5.6396 -7.1250 0.0000 -0.0000 -1.2932 16.7110 0.8669 0.0000 0.0000 0.0000 87.6178 -7.1619 21.8990 -17.1643 27.0739 -4.1618 0.0000 -0.0000 -3.2632 -18.2423 -51.8345 14.5282 7.1250 -0.0000 -0.0000 59.1971 -77.8013 -47.9829
9.3201 15.0136 19.5122 177.4390 -19.8420 -149.8180 0.0000 0.0000 0.0000 -9.5734 -33.1930 -47.0290 8.6478 16.5756 54.8638 -0.4316 -18.8400 -9.0419 2.4061 9.6651 27.8988 0.0000 0.0000 0.0000 19.2360 10.2055 -46.9646 -8.5106 -16.4823 54.3818 -4.0286 -2.8788 -39.0782 -2.9213 10.5666 -30.8318 -5.7896 -0.2515 -17.8963 -0.7829 0.5849 -1.9008 2.5708 -0.0158 7.9268 -6.4376 4.4087 -5.3980 16.4020 5.0819 4.6057 6.1671 2.6980 1.6301 -0.0000 0.0000 0.0000 -80.7341 -0.4185 40.0271 17.0886 -26.9745 -4.1275 -0.0000 -0.0000 1.4035 25.7723 -12.1405 -5.7981 -7.1250 0.0000 -0.0000 -1.0044 16.5459 0.6769 -0.0000 0.0000 0.0000 87.3144 -8.4117 22.0236 -17.6909 27.7596 -4.4043 0.0000 -0.0000 -3.0493 -17.4385 -51.4992 13.8112 7.1250 -0.0000 -0.0000 58.1802 -77.3486 -46.6275
9.3178 15.1669 19.4645 177.2010 -20.9200 -149.5900 0.0000 0.0000 0.0000 -9.8607 -33.3439 -45.7812 7.9388 16.0740 52.3419 -0.4658 -17.7277 -7.4842 2.0440 8.9571 25.6612 0.0000 0.0000 0.0000 19.4072 9.7282 -45.9701 -7.7721 -15.9490 51.7374 -3.4234 -5.4009 -37.1277 -3.7503 11.8205 -35.0999 -5.9419 -0.1902 -18.3566 -0.8789 0.6955 -2.1474 2.5820 0.0259 7.8982 -6.9376 4.2785 -5.2754 16.7053 4.9498 4.5166 6.3412 2.6287 1.5768 0.0000 0.0000 0.0000 -80.2742 -0.1221 40.9792 17.3355 -27.2980 -4.2401 -0.0000 -0.0000 1.5320 26.1540 -12.3787 -6.0094 -7.1250 0.0000 -0.0000 -0.7564 16.2407 0.5147 0.0000 0.0000 0.0000 87.4627 -9.7723 21.4917 -18.2245 28.4436 -4.6557 0.0000 -0.0000 -2.2592 -17.8396 -50.4659 13.9396 7.1250 -0.0000 -0.0000 53.7236 -77.0662 -42.4477
9.3105 15.3423 19.4194 177.1460 -22.0124 -149.2690 0.0000 0.0000 0.0000 -9.8420 -33.4777 -44.7286 7.2249 15.5183 49.7197 -0.4401 -16.3206 -6.2360 1.1137 6.7043 18.8424 0.0000 0.0000 0.0000 19.6604 9.4093 -44.9843 -7.0859 -15.4038 49.1983 -2.8982 -6.7954 -35.0678 -4.0366 12.2090 -36.4753 -5.8036 -0.1088 -18.9462 -0.9754 0.7716 -2.4597 2.4205 0.0570 7.8742 -7.4192 4.1772 -5.0548 16.9951 4.8495 4.4395 6.5065 2.5706 1.5082 0.0000 0.0000 0.0000 -79.7993 0.2078 41.6706 17.5096 -27.5246 -4.3202 -0.0000 -0.0000 1.7118 26.5014 -12.9153 -6.3591 -7.1250 0.0000 -0.0000 -0.5561 15.6082 0.3860 0.0000 0.0000 0.0000 87.6926 -11.0929 21.1186 -18.6873 29.0283 -4.8782 0.0000 -0.0000 -1.8110 -20.7656 -47.5997 15.6425 7.1250 -0.0000 -0.0000 40.6675 -76.6445 -31.1345
9.2972 15.5442 19.3680 177.0790 -23.3723 -149.1170 0.0000 0.0000 0.0000 -9.9137 -33.6474 -43.2668 6.4622 14.8618 46.8097 -0.4405 -14.8396 -4.3653 0.4580 4.3412 12.0386 0.0000 0.0000 0.0000 19.9514 8.8365 -43.5650 -6.3407 -14.7506 46.3344 -2.4130 -7.4882 -32.7442 -4.0094 12.1729 -36.3465 -5.6097 -0.1323 -19.5289 -0.9957 0.7076 -2.6516 2.2752 0.0205 7.9884 -7.9357 4.0960 -4.9042 17.2748 4.7816 4.3645 6.6779 2.5316 1.4479 -0.0000 0.0000 0.0000 -79.5303 0.3981 41.9969 17.5557 -27.5845 -4.3415 -0.0000 -0.0000 2.0371 26.8777 -13.2285 -6.6157 -7.1250 0.0000 -0.0000 -0.3222 15.2158 0.2264 -0.0000 0.0000 0.0000 87.8747 -12.2246 20.7941 -19.0667 29.5015 -5.0637 0.0000 -0.0000 -1.7335 -21.3057 -47.0097 15.9220 7.1250 -0.0000 -0.0000 38.1606 -76.4693 -28.9791
